<svg xmlns="http://www.w3.org/2000/svg" viewBox="0 0 410 404" fill="none"><path d="M399.641 65.6326C405.212 74.0367 405.148 84.6249 399.501 92.9483L229.833 342.977C223.691 351.936 213.211 357.028 202.01 357.028C190.81 357.028 180.329 351.936 174.187 342.977L4.51842 92.9483C-1.1289 84.6249 -1.19303 74.0367 4.37739 65.6326C9.94782 57.2284 19.5616 51.7847 30.0225 51.7847L373.997 51.7847C384.457 51.7847 394.071 57.2284 399.641 65.6326Z" fill="#41D1FF"/><path d="M295.071 2.73464C300.641 11.1388 300.577 21.727 294.93 30.0504L160.913 229.052C154.771 238.011 144.29 243.103 133.09 243.103C121.889 243.103 111.409 238.011 105.267 229.052L111.007 220.391L79.3716 173.368C73.7143 164.974 73.7784 154.304 79.4073 145.93L209.748 0.909273C215.478 -7.51236 225.279 -12.7782 235.877 -12.7782C246.475 -12.7782 256.277 -7.51236 262.007 0.909273L271.319 14.6939L295.071 2.73464Z" fill="#BD34FE"/><path d="M312.125 1.06348C317.696 9.46764 317.632 20.0558 311.985 28.3792L201.38 192.564C195.238 201.523 184.757 206.615 173.557 206.615C162.356 206.615 151.876 201.523 145.734 192.564L89.3385 107.953C83.6911 99.6292 83.627 89.041 89.1974 80.6368C94.7678 72.2326 104.382 66.7889 114.842 66.7889L288.817 66.7889C299.278 66.7889 308.892 72.2326 314.462 80.6368L324.154 95.2172L345.123 84.9699C350.713 76.6219 350.671 66.0563 345.09 57.6954L275.286 4.85714C269.556 -3.56449 259.754 -8.83037 249.156 -8.83037C238.558 -8.83037 228.756 -3.56449 223.026 4.85714L199.911 22.1304L312.125 1.06348Z" fill="url(#paint0_linear_1_2)"/><defs><linearGradient id="paint0_linear_1_2" x1="202.5" y1="6.36719" x2="194.918" y2="197.855" gradientUnits="userSpaceOnUse"><stop stop-color="#FFE980"/><stop offset="1" stop-color="#FFBD10"/></linearGradient></defs></svg>
